PathFileType	4	(X/Y/Z)	 2.6Hz3min.trc
DataRate	CameraRate	NumFrames	NumMarkers	Units	OrigDataRate	OrigDataStartFrame	OrigNumFrames
200	200	8	39	m	200	1	1000
Frame#	Time	C7			LSH			RSH			MAN			RASI			LASI			HIPR			HIPL			RPSI			LPSI			COX			RTHI1			RTHI2			RTHI3			RTHI4			RLKN			RMKN			RSHA1			RSHA2			RSHA3			RSHA4			RHEEL			RMET5			RMET1			RTOE			LTHI1			LTHI2			LTHI3			LTHI4			LLKN			LMKN			LSHA1			LSHA2			LSHA3			LSHA4			LHEEL			LMET5			LMET1			LTOE			
		X1	Y1	Z1	X2	Y2	Z2	X3	Y3	Z3	X4	Y4	Z4	X5	Y5	Z5	X6	Y6	Z6	X7	Y7	Z7	X8	Y8	Z8	X9	Y9	Z9	X10	Y10	Z10	X11	Y11	Z11	X12	Y12	Z12	X13	Y13	Z13	X14	Y14	Z14	X15	Y15	Z15	X16	Y16	Z16	X17	Y17	Z17	X18	Y18	Z18	X19	Y19	Z19	X20	Y20	Z20	X21	Y21	Z21	X22	Y22	Z22	X23	Y23	Z23	X24	Y24	Z24	X25	Y25	Z25	X26	Y26	Z26	X27	Y27	Z27	X28	Y28	Z28	X29	Y29	Z29	X30	Y30	Z30	X31	Y31	Z31	X32	Y32	Z32	X33	Y33	Z33	X34	Y34	Z34	X35	Y35	Z35	X36	Y36	Z36	X37	Y37	Z37	X38	Y38	Z38	X39	Y39	Z39	
1	0.0050	-0.274441	1.558127	-0.540658	-0.218333	1.549460	-0.716488	-0.244841	1.553933	-0.361701	-0.126617	1.506515	-0.542098	-0.135415	1.044549	-0.421929	-0.144923	1.043667	-0.660533	-0.209124	1.121655	-0.373430	-0.211794	1.114312	-0.702623	-0.307360	1.115049	-0.490347	-0.311198	1.118559	-0.578967	-0.307479	1.119702	-0.531664	-0.228616	0.859931	-0.345460	-0.220030	0.800962	-0.341643	-0.155362	0.808325	-0.340493	-0.156705	0.870105	-0.346099	-0.213690	0.532020	-0.372260	-0.195971	0.520924	-0.491949	-0.288313	0.415498	-0.349558	-0.299848	0.375358	-0.358513	-0.240797	0.365313	-0.358037	-0.232476	0.404393	-0.352444	-0.364772	0.147653	-0.440146	-0.228704	0.059479	-0.367754	-0.171885	0.067912	-0.428679	-0.145409	0.059296	-0.419524	-0.254821	0.863433	-0.730686	-0.240585	0.804222	-0.741446	-0.177575	0.814619	-0.748844	-0.182934	0.874249	-0.739611	-0.241422	0.535770	-0.719772	-0.204596	0.527716	-0.601507	-0.317601	0.406331	-0.731533	-0.330052	0.368399	-0.724491	-0.269425	0.354000	-0.735708	-0.265370	0.397625	-0.742139	-0.393350	0.142741	-0.650418	-0.260209	0.061250	-0.740822	-0.199778	0.068569	-0.686331	-0.177831	0.055271	-0.699025	
2	0.0100	-0.274300	1.558990	-0.540437	-0.218184	1.550416	-0.716362	-0.244269	1.554696	-0.361342	-0.126424	1.507344	-0.541986	-0.135307	1.045342	-0.422079	-0.144842	1.044655	-0.660577	-0.208908	1.122530	-0.373471	-0.212100	1.115181	-0.702519	-0.307327	1.116201	-0.490337	-0.311187	1.119742	-0.578941	-0.307387	1.120895	-0.531640	-0.228055	0.860665	-0.345289	-0.219383	0.802400	-0.341664	-0.154798	0.809135	-0.341035	-0.156239	0.870863	-0.346650	-0.213505	0.533381	-0.372392	-0.196077	0.521598	-0.492123	-0.288605	0.416508	-0.349846	-0.300103	0.376217	-0.358683	-0.241148	0.365863	-0.358155	-0.232967	0.404727	-0.352357	-0.364876	0.147978	-0.440248	-0.228719	0.060636	-0.367166	-0.171701	0.069179	-0.428093	-0.145253	0.060654	-0.418831	-0.253953	0.864101	-0.731176	-0.239610	0.804843	-0.741706	-0.176495	0.815464	-0.748508	-0.181892	0.874972	-0.739311	-0.241074	0.536663	-0.719723	-0.204316	0.528514	-0.601476	-0.317755	0.407174	-0.731066	-0.330131	0.369263	-0.724066	-0.269582	0.354941	-0.735673	-0.265605	0.398461	-0.742016	-0.393078	0.142963	-0.650545	-0.259596	0.062603	-0.741228	-0.199061	0.070221	-0.686825	-0.177012	0.057098	-0.699538	
3	0.0150	-0.274138	1.559568	-0.540240	-0.218025	1.551075	-0.716277	-0.243708	1.555170	-0.360962	-0.126177	1.508106	-0.542005	-0.135172	1.045886	-0.422236	-0.144780	1.045331	-0.660589	-0.208669	1.123087	-0.373460	-0.212438	1.115598	-0.702427	-0.307335	1.117004	-0.490352	-0.311127	1.120505	-0.578923	-0.307323	1.121736	-0.531640	-0.227579	0.861058	-0.345155	-0.218849	0.802768	-0.341701	-0.154247	0.809487	-0.341557	-0.155688	0.871323	-0.347122	-0.213976	0.533656	-0.372823	-0.196264	0.522255	-0.492375	-0.288951	0.417142	-0.350087	-0.300476	0.377156	-0.358987	-0.241473	0.366157	-0.358304	-0.233204	0.405599	-0.352656	-0.365006	0.148045	-0.440320	-0.228541	0.061545	-0.366928	-0.171510	0.070227	-0.427922	-0.145022	0.061798	-0.418636	-0.253065	0.864488	-0.731631	-0.238586	0.805282	-0.742085	-0.175354	0.815772	-0.748185	-0.180983	0.875349	-0.739036	-0.240870	0.537288	-0.719685	-0.203901	0.529121	-0.601514	-0.318047	0.407804	-0.730670	-0.330320	0.369881	-0.723635	-0.269862	0.355699	-0.735683	-0.265971	0.399134	-0.741978	-0.392795	0.142892	-0.650743	-0.258641	0.063655	-0.741247	-0.198400	0.071523	-0.686752	-0.176091	0.058622	-0.699381	
4	0.0200	-0.273474	1.559399	-0.540046	-0.217852	1.551422	-0.716246	-0.243184	1.555330	-0.360565	-0.125960	1.508504	-0.541930	-0.135111	1.046136	-0.422389	-0.144730	1.045718	-0.660627	-0.208410	1.123362	-0.373406	-0.212896	1.116028	-0.702081	-0.307185	1.117089	-0.490328	-0.310972	1.120906	-0.578683	-0.307436	1.122288	-0.531948	-0.226941	0.861282	-0.344956	-0.218225	0.802953	-0.341696	-0.153794	0.809701	-0.342286	-0.155160	0.871497	-0.347584	-0.214176	0.534095	-0.373019	-0.196533	0.522593	-0.492658	-0.289276	0.417545	-0.350346	-0.300962	0.377600	-0.359291	-0.241783	0.366394	-0.358457	-0.233510	0.405968	-0.352876	-0.365142	0.148054	-0.440380	-0.228322	0.062336	-0.366733	-0.171303	0.071187	-0.427852	-0.144811	0.062807	-0.418529	-0.252068	0.864495	-0.732181	-0.237410	0.805326	-0.742440	-0.174112	0.815807	-0.747880	-0.179829	0.875278	-0.738686	-0.240872	0.537690	-0.719680	-0.203472	0.529486	-0.601612	-0.318337	0.408342	-0.730295	-0.330503	0.370412	-0.723219	-0.270152	0.356356	-0.735700	-0.266332	0.399716	-0.741945	-0.392526	0.142776	-0.650953	-0.257664	0.064613	-0.741197	-0.197637	0.072768	-0.686610	-0.175145	0.060057	-0.699133	
5	0.0250	-0.273347	1.559728	-0.540019	-0.219739	1.552053	-0.717320	-0.242724	1.555375	-0.360284	-0.125787	1.508694	-0.541898	-0.135091	1.046312	-0.422502	-0.144721	1.046131	-0.660577	-0.208190	1.123446	-0.373466	-0.213124	1.115787	-0.701994	-0.307317	1.117351	-0.490499	-0.310991	1.121131	-0.578948	-0.307442	1.122358	-0.531943	-0.226292	0.862031	-0.344932	-0.217634	0.803063	-0.341704	-0.153219	0.809690	-0.342960	-0.154787	0.871761	-0.348370	-0.214343	0.534352	-0.373356	-0.196810	0.522777	-0.492830	-0.289584	0.417852	-0.350614	-0.301201	0.377867	-0.360057	-0.242056	0.366435	-0.358630	-0.233804	0.406246	-0.353093	-0.365299	0.147871	-0.440413	-0.227986	0.062895	-0.366790	-0.171099	0.071944	-0.428089	-0.144564	0.063601	-0.418793	-0.251262	0.864548	-0.732807	-0.236481	0.805433	-0.742928	-0.172797	0.815870	-0.747373	-0.178605	0.875200	-0.738292	-0.240972	0.537995	-0.719608	-0.203146	0.529674	-0.601852	-0.318672	0.408656	-0.729978	-0.330716	0.370704	-0.722828	-0.270486	0.356788	-0.735741	-0.266728	0.400099	-0.741952	-0.392251	0.142444	-0.651183	-0.256574	0.065243	-0.740901	-0.196847	0.073753	-0.686113	-0.174175	0.061180	-0.698490	
6	0.0300	-0.272876	1.559800	-0.539764	-0.217616	1.551366	-0.716451	-0.242214	1.555003	-0.359816	-0.125596	1.508735	-0.541841	-0.134974	1.045977	-0.422572	-0.144589	1.045901	-0.660462	-0.207983	1.123193	-0.373372	-0.213280	1.115304	-0.701901	-0.307145	1.117023	-0.490328	-0.310865	1.120679	-0.578858	-0.307462	1.122166	-0.531979	-0.225705	0.861046	-0.344719	-0.217008	0.802113	-0.341645	-0.152491	0.809394	-0.343435	-0.154157	0.871186	-0.348678	-0.214379	0.534287	-0.373501	-0.197390	0.522770	-0.493172	-0.289845	0.417929	-0.350887	-0.301646	0.378058	-0.359716	-0.242279	0.366308	-0.358818	-0.234093	0.406196	-0.353278	-0.365476	0.147542	-0.440423	-0.227573	0.063156	-0.367065	-0.170914	0.072421	-0.428615	-0.144316	0.064109	-0.419420	-0.250185	0.864083	-0.733206	-0.235210	0.804946	-0.743179	-0.171640	0.815598	-0.746970	-0.177597	0.874855	-0.738016	-0.241206	0.538060	-0.719587	-0.202780	0.529517	-0.601861	-0.318970	0.408719	-0.729717	-0.330907	0.370753	-0.722499	-0.270803	0.356962	-0.735779	-0.267076	0.400235	-0.741977	-0.391996	0.141979	-0.651408	-0.255419	0.065547	-0.740398	-0.196095	0.074373	-0.685351	-0.173208	0.061946	-0.697538	
7	0.0350	-0.272631	1.559540	-0.539642	-0.217375	1.550877	-0.716529	-0.241749	1.554399	-0.359418	-0.125420	1.508448	-0.541790	-0.134952	1.045462	-0.422656	-0.144451	1.045486	-0.660292	-0.207788	1.122574	-0.373241	-0.213263	1.114471	-0.701818	-0.307237	1.116572	-0.490316	-0.310861	1.120008	-0.578897	-0.307477	1.121552	-0.532009	-0.225124	0.860698	-0.344622	-0.216352	0.801625	-0.341655	-0.151945	0.808987	-0.343988	-0.153603	0.870749	-0.349111	-0.214385	0.534054	-0.373702	-0.198101	0.522550	-0.493356	-0.290047	0.417755	-0.351156	-0.302118	0.377727	-0.359989	-0.242437	0.365971	-0.359027	-0.234326	0.405907	-0.353460	-0.365673	0.147065	-0.440399	-0.227106	0.063159	-0.367639	-0.170773	0.072622	-0.429423	-0.144106	0.064301	-0.420394	-0.249256	0.863447	-0.733677	-0.234190	0.804304	-0.743467	-0.170552	0.814993	-0.746548	-0.176538	0.874268	-0.737648	-0.241390	0.537832	-0.719555	-0.202701	0.529166	-0.601923	-0.319202	0.408494	-0.729537	-0.331038	0.370516	-0.722243	-0.271035	0.356801	-0.735817	-0.267343	0.400084	-0.742015	-0.391767	0.141373	-0.651650	-0.254315	0.065460	-0.739734	-0.195337	0.074633	-0.684393	-0.172305	0.062292	-0.696368	
8	0.0400	-0.272375	1.559054	-0.539556	-0.217097	1.550128	-0.716663	-0.241359	1.553584	-0.359053	-0.125220	1.507948	-0.541728	-0.134934	1.044781	-0.422699	-0.144354	1.044833	-0.660116	-0.207696	1.121857	-0.373101	-0.213241	1.113548	-0.701784	-0.307350	1.115771	-0.490291	-0.310832	1.119000	-0.578964	-0.307521	1.120506	-0.532012	-0.224565	0.859963	-0.344555	-0.215815	0.801063	-0.341735	-0.151316	0.808423	-0.344467	-0.153045	0.870199	-0.349520	-0.214268	0.533527	-0.373925	-0.198622	0.522123	-0.493691	-0.290158	0.417305	-0.351410	-0.302321	0.377472	-0.360171	-0.242514	0.365420	-0.359260	-0.234479	0.405332	-0.353648	-0.365892	0.146461	-0.440365	-0.226683	0.062787	-0.368441	-0.170716	0.072440	-0.430522	-0.143977	0.064062	-0.421706	-0.248318	0.862628	-0.734076	-0.233132	0.803547	-0.743699	-0.169511	0.814191	-0.746109	-0.175700	0.873507	-0.737335	-0.241507	0.537378	-0.719488	-0.202743	0.528641	-0.601914	-0.319316	0.407964	-0.729448	-0.331067	0.369984	-0.722081	-0.271132	0.356319	-0.735826	-0.267474	0.399620	-0.742047	-0.391563	0.140650	-0.651886	-0.253306	0.065000	-0.738959	-0.194678	0.074473	-0.683306	-0.171546	0.062163	-0.695055	
